<?xml version="1.0" encoding="utf-8"?>
<!-- Generator: Adobe Illustrator 27.3.1, SVG Export Plug-In . SVG Version: 6.00 Build 0)  -->
<svg version="1.1" id="Livello_1" xmlns:serif="http://www.serif.com/"
	 xmlns="http://www.w3.org/2000/svg" xmlns:xlink="http://www.w3.org/1999/xlink" x="0px" y="0px" viewBox="0 0 129 130"
	 style="enable-background:new 0 0 129 130;" xml:space="preserve">
<style type="text/css">
	.st0{fill:none;}
	.st1{fill-rule:evenodd;clip-rule:evenodd;fill:#FFFFFF;}
</style>
<rect x="6.2" class="st0" width="115.6" height="130"/>
<path id="Shape" class="st1" d="M85.4,21c0-0.4,0.2-0.8,0.3-1c0-0.1,1-0.9,1.2-1l-1-0.5c-1.1-0.5-1.7-1.5-1.8-2.7l-2.7-1.1l0.2-1.3
	c-2,0.7-3.6,0.3-4.9-1c-1-0.3-1.3-0.9-1.1-2c-1,0.2-2,0.2-3.1-0.1c-1.4-0.5-2.1-1-2.2-1.7c0-0.7,0.1-1.2,0.3-1.5
	c-1.1-0.5-1.7-1.3-2-2.1c-0.3-0.9-0.1-1.5,0.5-2s1.7-0.8,3.4-0.9c-0.1-1.2,0.3-1.8,1.4-1.7c0.7,0.2,1.4,0.4,2.2,0.6s1.5,0.6,2.2,1.3
	c0.4-0.7,1.3-0.8,2.6-0.3c1.6,0.7,3.5,2.3,5.8,4.6c1.4-1,2.3-0.6,2.7,1.1l0.2,1.4c1.3-1.4,2.7-1.2,4.3,0.4c0.5,0,1.1,0.2,1.9,0.7
	C96.2,10,96.6,9.9,97,10c1.1,0,1.9,0.6,2.4,1.7s0.8,2.1,1,3.1c0.3-1.2,0.9-1.7,1.7-1.4c0.6,0.7,1.1,1.9,1.5,3.6
	c0.7,0.9,1.1,1.9,1.2,3.1c1.6-0.5,3.2,0.6,5,3.3c0.6-0.8,1.5-0.3,2.6,1.3c0.7,1.3,1.2,2.6,1.4,4c1.1-0.5,1.8,0.7,1.9,3.4
	c0.9,2.1,1.3,3.4,1.3,4s-0.1,1.2-0.4,1.6c0.6-0.5,1.1-0.3,1.4,0.4c0.8,1.3,1.1,2.3,1,3.1c0,0.9-0.7,1.9-2,3.1
	c2.4-0.7,3.1,0.1,2.1,2.3c-1.5,2.2-2.3,3.8-2.4,4.7c0,1.4-0.2,2.5-0.5,3.1c-0.3,0.7-1.1,1.3-2.3,1.8c0.2,0.5,0.2,1-0.1,1.6
	c1.3-1.2,2.4-1.6,3.2-1.2c1.3-1,2.4-1.3,3.4-0.6c0.9,0.6,1.1,2.2,0.8,4.7c1,1.5,0.8,3.2-0.5,5.1c0.5,0.5,0.8,1,0.8,1.7
	s-0.2,1.2-0.5,1.6s-1,0.9-1.8,1.4c0.2,1.3,0.3,2.6,0.1,3.7c-0.2,1.3-1.3,3-3.1,5.2c0.4,1.3,0.2,2.5-0.5,3.6c-2,2.3-3.4,3.7-4.3,4.2
	c0.5,0.9,0.5,1.6,0,2.1c-2.9,1.9-5.3,2.9-7.1,3.1c-1.5,0.2-2.9,0.8-4.2,1.9l-4,4.8c-0.3,0.8-0.7,1.3-1.3,1.5c0,0.9-0.3,1.5-0.9,1.7
	s-1.3,0.4-2.2,0.5c-1.3,1-2.5,1.8-3.6,2.5c0.3,1.5,0.8,2.6,1.6,3.3c3.3,0.6,5.5,0.7,6.4,0.4c1.2-0.6,3.5-2.2,6.8-4.9
	c0.2-1,0.5-3.1,0.8-6.1c0-0.6-0.3-1.1-0.8-1.6c-0.6-0.7-0.7-1.4-0.1-2.1c0.4-0.5,1.6-1,3.6-1.5c0.5-0.1,0.8,0.2,0.6,1l-0.1,1.6
	c0.1,0.3,0.6,0.5,1.5,0.6c1.8-0.2,3.5-0.2,4.9-0.1c0.8,0.1,1.3,0.3,1.6,0.6c0.5,0.5,0.8,1.1,0.6,1.7c-0.1,0.6-0.1,1.3,0.1,2.1
	c0.1,0.8,0.5,1.8,1,3s1.1,2.1,1.8,2.7c-0.7,1.6-1.6,3-2.7,4.2c-7.7,5.5-12.4,8.8-13.9,9.9s-2.8,1.6-3.7,1.4
	c-7.4-0.5-13.6-1.2-18.6-2.1l1.1,0.8c1.7,1.3,3.4,2.4,5,3.1l1.3,0.3l0.6,0.6c0.1,0.6-0.3,1.2-1,1.8l-1.5,0.5c-1.2,1-2.6,1.6-4,1.5
	l-1-0.3l-1-1.8c-1.4-0.3-2.3-0.6-2.6-1c-0.5-0.5-0.8-1-0.8-1.4c-4-3.6-6.8-5.6-8.4-6l-1.8,1c-0.7,0.3-1.5,0.4-2.4,0.1
	c-1.9-1-2.9-1.4-3-1.2l-2.4,1.6c-0.3,0.2-0.5,0.6-0.6,1.4c-0.5,0.8-1.5,1.4-3,1.6l-2,1.5l-2.7,2.7l-0.3,0.3
	c-0.3,1.1-0.8,1.8-1.6,2.1c-0.9,0.3-1.8,0.3-2.7,0l-2.5-1.5l-0.9-1c-0.7-0.2-1.2-0.6-1.5-1.2c-0.4-1.3-0.1-2,0.9-2.1
	c0.7,0.3,2.2-0.4,4.7-2.3l-0.1-0.7c-8.5,1.3-13,1.9-13.7,1.8c-3.3-1.4-6.7-3.2-10.4-5.3c-3.1-1.8-5.2-3.1-6.4-4s-2.1-1.6-2.7-2.2
	c-1.4-1.4-2.2-2.4-2.6-3c-0.3-0.6-0.4-1.1-0.2-1.4c1.4-2.1,2.2-3.9,2.6-5.3c0.1-0.4,0.2-0.8,0.1-1.3c-0.4-1.4-0.2-2.3,0.1-2.7
	c0.4-0.5,1.1-0.7,1.7-0.7l6.9-0.1v-1.8v1.4l0.8-1.4l0.6,0.3l-1,2.1c-0.1,0.3-0.4,0.5-0.9,0.4c-1.1-0.1-3.1,0-6.2,0.1
	c-1.2,0-1.6,0.8-1.1,2.4c0.1,0.4,0,0.9-0.1,1.5c-0.4,1.5-1.2,3.2-2.4,5.2c-0.4,0.4,0.4,1.6,2.2,3.6c1.6,1.5,4.4,3.5,8.4,5.9
	c5.7,3.2,9.1,5,10.3,5.3c4.7-0.5,9.4-1.3,14.2-2.1c1.9-0.4,4.1-0.9,6.4-1.4c2.4-0.5,6.3-1.8,11.7-3.8c0.4-0.1,0.5-0.6,0.3-1.4
	c-0.3-1.7-1-3.6-2.2-5.9c-1.2,0.2-2.6,0.3-4,0.3c-1.5,0-2.7,0.1-3.6,0.3c-2.6,0.3-5.1,0.7-7.5,1.2l-5.9,1.1
	c-3.9,0.5-6.9,0.8-9.1,0.9c-2.2-1.6-5.3-3.6-9.3-6.2c-2.5-1.6-5.4-3.3-8.7-4.9c-0.5-0.4-0.5-0.8-0.2-1.2c0.4-0.2,1.3-0.3,2.7-0.3
	c0.6,0,0.9,0.2,0.8,0.5s-0.4,0.4-0.8,0.4s-0.8,0.1-1.1,0.1c2.8,1.2,5.4,2.6,7.8,4.2l-0.1-3.6c0-1.3,0.2-2.4,0.8-3.4
	c0.1-0.8-0.7-1.4-2.6-1.9c-0.3-0.1-0.4,0-0.4,0.2V94c0-0.4-0.2-0.7,0-0.8c0.6-0.1,1.3,0.2,2.8,0.9c1,0.6,1.4,1.3,1.3,2.1
	c-0.6,1-0.8,2.1-0.8,3.6l0.2,4.1c3.2,2.2,5.8,3.9,7.5,5.2c1.9,0,4-0.2,6.3-0.5l1.3-3.7c-1.1-0.8-2.4-1.9-3.8-3.3l-1,0.1
	c-1,0-1.8-0.5-2.3-1.6c-1.2,0.1-2.3-0.7-3.4-2.4c-1.7-2-3.2-3.9-4.3-5.7c-0.8,0.2-1.6,0.1-2.5-0.4s-1.9-1.2-2.9-2.2l-5-5.9
	c-3.3-4.1-5.7-9.1-7.1-15.2c-0.3-1.9-0.4-3.6-0.5-5.3c0-1.7,0-2.7,0-3.1c0.2-1.1,0.6-1.7,1.4-2c1.5-0.5,3.6,2.2,6.2,8.1
	c1.4,3.2,3.2,8,5.3,14.4c0-1,0.1-2,0.3-3c-1-1.9-1.8-3.9-2.4-6.1c-0.2-0.7-0.5-1.1-0.9-1.4c-0.3-0.2-0.5-0.6-0.4-1.2
	c0-0.6-0.1-1.4-0.5-2.5c-0.7-2.3-1.2-4-1.6-5c-0.6-0.2-1.3-1-2.1-2.4c-0.7-1.4-1.5-3.5-2.2-6.4c-0.6-2.9-0.8-5.6-0.5-8.1
	c0.4-3.9,0.9-7.1,1.6-9.4c0.7-2.4,1.5-4.4,2.5-6.2c0.9-1.7,1.7-3.1,2.4-4s1.4-1.9,2.1-2.9s1.5-1.8,2.2-2.3c0.8-0.3,1.3-0.1,1.5,0.5
	c0.4,1.5,0.5,3.2,0.1,5.3c0.6-1.8,1.7-4.3,3.3-7.5c1.6-3.1,3.5-5.8,5.6-7.9c1.9-1.7,3.2-2.7,4-2.9c0.7-0.2,1.1-0.1,1.3,0.3
	s0.2,1.1,0,2.1c-0.8,2-1.5,3.8-2.2,5.3l-1.4,3.1c1.1-2.3,2.7-4.6,4.6-6.7c1.9-2.2,4-4,6.4-5.5C45.2,4,48,2.7,51.1,2
	c3-0.5,4.8-0.4,5.4,0.4c0,1-0.5,2-1.3,2.9c1.6,0,2.5,0.3,2.8,0.7c-0.1,1.7-1.1,3.4-3,5c-1.7,1.4-3.6,2.5-5.5,3.4l-2.8,1.5
	c-1.8,0.8-3.7,1.8-6,2.7L40,18.9l-0.6,0.2c-0.1,0.4-0.4,1.2-0.9,2.1c0.2-0.2,0.4-0.3,0.5-0.4l0.3-0.2l3,2.7c1.5-0.9,3-1.6,4.5-2.3
	l-0.5-4l0.3-0.1c0.8-0.3,4.1-1.4,5-1.6l0.3-0.1l2,3.5c1.5-0.4,3.2-0.6,5-0.8l0.8-3.9H60l0,0l0,0l0,0l0,0l0,0l0,0h0.3l0,0h0.1l0,0
	l0,0h0.3c0.6,0,1.3,0,1.9,0c1,0,2.1,0,2.6,0h0.3l0.8,3.9c1.6,0.1,3.3,0.4,5,0.8l2-3.5l0.3,0.1c0.9,0.2,4.2,1.3,5,1.6l0.3,0.1l-0.5,4
	c1.5,0.7,3,1.4,4.5,2.3L85.4,21L85.4,21z M53.5,120.5c-1.9,1.9-4.1,3.7-6.5,5.3l-0.8-0.3c1.4-0.9,3.4-2.3,6-4.2l1.2-1.3l-0.6-0.1
	c-0.9,0.8-1.9,1.6-3,2.4s-2.4,1.6-3.9,2.3l-2,1l0.3,0.4l1.5,0.2c0.9,0.5,1.2,1.1,1.1,1.6c-0.5,0.7-1.2,0.8-2.2,0.3l-1.6-0.9
	c-0.6-0.6-1.2-1-1.8-1.2l-0.7-0.5l0.3-0.6l2.1,0.9h0.6l-0.3-1.3l2.5-1.5c0.6-0.2,0.9-0.6,0.8-1.2l0.2-1.2c1.1,0.2,2.2,0.1,3.4-0.5
	s2.4-0.9,3.5-1C54.3,119.4,54.2,119.9,53.5,120.5L53.5,120.5z M85.8,125.3l0.8,0.1l-0.3,0.3l-1.8,0.5c-0.8,0.7-1.7,1.1-2.7,1.4
	l-1.2-0.2l-0.3-0.8c0.3-0.4,0.6-0.7,1.1-0.9c0.4-0.2,1-0.3,1.7-0.5l1.6,0.3L85.8,125.3L85.8,125.3z M81,125.7c0.3,0,1.1-0.8,2.3-0.8
	l-5.8-4.4c-2-0.5-3.2-0.8-3.8-0.4l3.2,2.7c0.8,0.8,1.8,1.2,3.2,2.9L81,125.7L81,125.7z M93.1,110.6c1.3,0.1,2.3,0.1,3-0.2
	c1.2-0.5,3.8-2.4,7.6-5.6c3.7-2.8,6.8-4.7,9.4-5.8c0.8-0.5,0.8-0.8,0.1-1s-1.8-0.3-3.2-0.3c-0.5,0.4-0.4,0.7,0.1,0.9
	c0.6,0,1.1,0,1.4,0.1c-3.1,1.6-5.6,3.2-7.7,4.8c0.2-1,0.3-2.9,0.5-5.4c0-0.8-0.3-1.5-0.8-2.2c-0.3-0.5,0.1-0.9,1.3-1.2l0.9-0.3v1.5
	l-1.3-0.3l0.2,0.7c0.3,0.5,0.8,0.8,1.5,1l3.7,0.2l1.7-0.1c1.9,0,2.9,0.5,2.8,1.4c0,0.9,0,1.7,0.2,2.5c0.3,2,1.1,3.8,2.3,5.6
	c-0.3,0.8-0.9,1.8-1.8,2.9l-3.6,2.3c-3.1,2.2-7.2,5-12.5,8.6c-3.8,0.1-8.3-0.2-13.5-0.9c-3.8-0.5-8.2-1.5-13.1-2.9l-1.1-0.3l0.5-0.5
	c0.8-1,1.2-1.7,1.3-2s-0.1-1.1-0.4-2.3c-0.3-1.2-0.9-2.6-2.6-4.3v-0.4l1-0.1c2.8,0.2,5.4,0.5,7.6,1.1c2.2,0.5,4.9,1,7.9,1.5
	C89.6,110.1,91.8,110.5,93.1,110.6L93.1,110.6z M89.6,113.4c0-0.3,0.2-1.1,0.2-1.4c-0.2-0.3-0.5-0.5-0.8-0.5l0.2-0.1
	c0.3,0,0.8,0.1,1.1,0.1c0.5,0.2,0.9,0.2,1.4,0.2l-0.1,0.3c-0.2,0-0.6-0.2-0.8,0.2c-0.2,0.3-0.2,1.1-0.3,1.4l-0.5,2.9
	c-0.2,1.2,0,1.5,0.9,1.7c0.5,0,0.9,0.2,1.2,0c0.6-0.3,0.6-0.6,0.8-1.2h0.3l-0.5,1.9c0-0.2-0.3-0.2-0.3-0.2c-1.5-0.3-2.9-0.5-4.5-0.8
	v-0.2c0.3,0,0.6,0,0.9-0.3c0-0.1,0.2-0.9,0.3-1.2L89.6,113.4L89.6,113.4z M96.4,118.6c-0.5,0.2-0.8,0.2-1.2,0.2v-0.2
	c0.2,0,0.6,0,0.6-0.5c0.1-0.3,0-0.9,0-1.2l-0.2-2.9c0-0.3-0.2-1.1-0.2-1.2c-0.1-0.5-0.5-0.3-0.8-0.3v-0.3c0.3,0,0.8,0,1.2,0
	c0.3,0,0.8-0.2,1.2-0.2v0.3c-0.3,0-0.6,0-0.8,0.3c0,0.3,0,1.1,0,1.4l0.3,2.8c0,0.3,0,1.1,0.2,1.4s0.5,0.3,0.8,0.3v0.2h-1.1V118.6z
	 M33.7,113.9c0-0.3-0.2-1.1-0.2-1.3c-0.2-0.3-0.5-0.3-0.8-0.1v-0.3c0.3,0,0.8,0,1.1-0.2c0.5,0,0.8,0,1.1-0.2c0.8-0.2,2-0.1,2.2,1.3
	c0.2,0.9-0.3,1.4-0.9,1.7c0.5,0,0.9,0,1.2,0.1c0.5,0.3,0.8,0.7,0.8,1.3c0.2,0.6-0.1,1.1-0.6,1.5c-0.3,0.3-0.9,0.5-1.4,0.5
	s-0.8,0-1.1,0.2c-0.6,0-0.9,0.2-1.5,0.2v-0.2c0.3-0.2,0.6-0.2,0.8-0.5c0-0.3-0.2-1-0.2-1.3C34.2,116.6,33.7,113.9,33.7,113.9z
	 M69.4,115.4l-0.3-1.1l-1.9,2.3l-1.5,1c-0.7,0.6-1.4,0.8-2.1,0.7l-2.4-1.2l1.2-0.6l0.3,0.3c-0.2,0.7,0,0.6,0.8-0.3l2.1-2.1
	c0.1-1.2-0.2-2.8-0.9-4.8c-0.7-1.9-1.3-3.2-1.6-3.7c-0.1-0.4-1.1-0.5-3.2-0.3c1.2-0.6,2.6-0.6,4.2-0.1l1.6,0.7l0.9-0.4l-0.1-0.1
	L65,105l0.8,0.1l0.7,0.7l0.2,0.1h-0.1l0.5,0.4c2.3,2.5,3.6,4.2,3.9,5.1s0.3,1.8,0.1,2.7C70.4,115.3,69.8,115.7,69.4,115.4
	L69.4,115.4z M35.1,116.4c0,0.3,0.2,0.9,0.3,1.2c0.2,0.3,0.5,0.3,0.8,0.1c0.8,0,1-0.6,0.9-1.5c-0.2-0.4-0.3-0.9-0.8-1
	c-0.3-0.1-0.8-0.1-1.2,0h-0.2C35,115.2,35.1,116.4,35.1,116.4z M38.8,113c0-0.3-0.2-1.1-0.3-1.2c-0.2-0.3-0.5-0.3-0.8-0.3v-0.1
	c0.5-0.2,0.8-0.2,1.2-0.2c0.3,0,0.6-0.2,0.9-0.2c0.9-0.2,2-0.1,2.2,1.2c0.2,0.9-0.4,1.4-1,1.7c0.5,0,0.9,0,1.2,0.3
	c0.5,0.3,0.8,0.7,0.9,1.2c0,0.8-0.3,1.2-0.6,1.5c-0.4,0.5-1.1,0.5-1.5,0.5c-0.1,0.2-0.6,0.2-0.9,0.2c-0.5,0-0.9,0.2-1.4,0.3v-0.3
	c0.1,0,0.6,0,0.6-0.5c0-0.3-0.2-0.9-0.2-1.2L38.8,113L38.8,113z M100.2,115.2c0,0.3,0.1,1.1,0.3,1.5c0.2,0.3,0.6,0.2,0.8,0l0.2,0.2
	c-0.3,0.2-0.5,0.3-0.8,0.5c-0.3,0.1-0.6,0.3-0.8,0.5l-0.2-0.2c0.3-0.3,0.5-0.5,0.3-1.1c0-0.6-0.2-1.4-0.3-2l-0.8-4.2h0.3l4,3.5
	c0.2,0.2,0.6,0.6,0.9,0.8c0.3,0.2,0.6,0,0.8,0l0.2,0.2c-0.3,0.2-0.8,0.3-1.1,0.6c-0.3,0.2-0.8,0.3-1.1,0.6l-0.2-0.3
	c0.3,0,0.6-0.3,0.5-0.6c-0.1-0.2-0.3-0.5-0.6-0.6l-0.8-0.6l-1.8,0.9L100.2,115.2z M83.2,115c-0.2,0.3-0.5,1.1-0.6,1.4
	c0,0.5,0.5,0.5,0.6,0.6v0.2c-0.3,0-0.6-0.2-0.9-0.2s-0.6-0.2-0.9-0.2l0.1-0.1c0.5,0,0.6-0.2,0.9-0.6c0.3-0.6,0.6-1.2,0.9-1.9
	l1.8-3.7l0.3,0.1l0.9,5.3c0.2,0.3,0.2,0.9,0.3,1.2c0.1,0.3,0.3,0.3,0.6,0.5v0.2c-0.3,0-0.8-0.2-1.2-0.2c-0.3-0.1-0.8-0.1-1.2-0.1
	l0.2-0.3c0.2,0,0.6,0.2,0.6-0.2c0-0.3,0-0.6,0-0.9l-0.2-1.1l-2.2-0.3C83.3,114.7,83.2,115,83.2,115z M27.6,111.5
	c0.1-0.6,0.2-1.1-0.2-1.5l0.1-0.2c0.3,0.1,0.7,0.4,1,0.6c0.3,0.1,0.6,0.4,1.1,0.6l-0.1,0.2c-0.2-0.1-0.6-0.3-0.8,0
	c-0.1,0.3-0.5,1.9-0.7,2.4l-0.5,2.7l1.9-1.6c0.3-0.3,1.5-1.5,1.6-1.8c0.3-0.5,0-0.6-0.2-0.8v-0.3c0.3,0.3,0.6,0.4,0.8,0.6
	c0.3,0.1,0.6,0.3,0.8,0.4v0.1c-0.6-0.4-1.2,0.4-1.8,0.9l-3.9,3.6l-0.3-0.1L27.6,111.5L27.6,111.5z M40.1,115.7
	c0.2,0.3,0.2,0.8,0.3,1.1c0.2,0.3,0.5,0.3,0.8,0.3c0.6-0.2,0.9-0.8,0.7-1.5c0-0.6-0.3-0.9-0.6-1.2c-0.5-0.1-0.8,0-1.1,0h-0.3
	C39.9,114.3,40.1,115.7,40.1,115.7z M43.7,112.1c0-0.3-0.2-1.1-0.2-1.4c-0.2-0.3-0.6-0.3-0.8-0.1l-0.2-0.3c0.5,0,0.9,0,1.2-0.2
	c0.5,0,0.9,0,1.2-0.2l0.2,0.3c-0.3,0-0.6,0-0.7,0.3c0,0.3,0.2,1,0.2,1.4l0.4,2.9c0.2,1.2,0.5,1.5,1.6,1.3c0.3-0.2,0.8-0.2,1.1-0.5
	s0.3-0.8,0.3-1.2l0.3-0.2l0.2,1.8c-0.1,0-0.3,0-0.4,0c-1.4,0.2-2.9,0.5-4.3,0.7v-0.2c0.3-0.2,0.6-0.2,0.6-0.5c0.1-0.3,0-1.1,0-1.4
	L43.7,112.1L43.7,112.1z M82.6,111.8l-0.2-0.1c0.2-0.9-0.2-1.2-0.9-1.4c-0.5,0-0.9-0.1-0.9,0.2l-0.8,4.8c0,0.8,0,0.9,0.8,1.2v0.1
	c-0.5,0-0.9-0.1-1.4-0.3c-0.5,0-0.9,0-1.4-0.2V116c0.9,0,1.1-0.2,1.2-0.9l0.6-4.8c0.2-0.1-0.3-0.3-0.6-0.3c-0.9-0.1-1.2-0.1-1.4,1.1
	l-0.3-0.2l0.3-1.5l5.2,0.9C82.9,110.3,82.6,111.8,82.6,111.8z M74.8,110.8c0-0.3,0.2-0.9,0-1.2c0-0.3-0.3-0.5-0.6-0.5v-0.3
	c0.4,0.1,0.9,0.3,1.2,0.3c0.5,0,0.9,0.2,1.4,0.2l-0.2,0.1c-0.2,0-0.6,0-0.8,0.3s-0.2,0.9-0.3,1.2l-0.3,2.9c-0.1,0.3-0.1,1.1-0.1,1.2
	c0,0.5,0.3,0.5,0.6,0.5v0.3c-0.5-0.2-0.8-0.2-1.2-0.3c-0.5,0-0.8,0-1.2-0.2v-0.2c0.3,0,0.6,0,0.8-0.3c0.2-0.2,0.3-0.9,0.3-1.2
	L74.8,110.8z M49,111.1c0-0.3-0.2-0.9-0.2-1.2c-0.3-0.3-0.6-0.3-0.8-0.3l-0.2-0.1c0.5-0.2,0.9-0.2,1.2-0.2c0.4,0,0.9-0.2,1.2-0.2
	v0.2c-0.2,0-0.5,0.2-0.6,0.5c0,0.3,0,0.9,0.2,1.2l0.4,2.9c0,0.3,0.2,1,0.3,1.2c0.2,0.3,0.5,0.3,0.8,0.3v0.3c-0.4,0-0.8,0-1.2,0
	c-0.3,0.2-0.8,0.2-1.2,0.2v-0.1c0.3,0,0.6,0,0.6-0.5c0.1-0.3,0-0.9,0-1.2C49.5,114,49,111.1,49,111.1z M55.2,108.2h0.2l0.4,2h-0.2
	c-0.3-1.1-1.1-1.8-2-1.6c-1.5,0.2-1.6,2-1.4,3.5c0.4,1.5,1,3,2.5,2.8c1.1-0.3,1.3-1.2,1.3-2.5l0.1-0.2l0.4,2.3l-0.3-0.4
	c-0.4,0.6-1,0.8-1.7,0.9c-1.7,0.4-3.1-0.8-3.4-2.8c-0.2-2,0.7-3.7,2.3-3.8c0.8-0.2,1.2,0,1.8,0.2L55.2,108.2L55.2,108.2z
	 M34.8,114.8l0.3-0.1c0.3,0,0.6,0,0.8-0.3c0.3-0.3,0.3-0.6,0.3-1.1c-0.2-0.8-0.5-1.2-1.3-1c0,0-0.3,0-0.5,0.2v0.3L34.8,114.8z
	 M85.3,114.7l-0.5-2.8l-1.2,2.5C83.6,114.4,85.3,114.7,85.3,114.7z M22.7,112.5c-0.1,0.3-0.6,1-0.5,1.3c-0.1,0.3,0.2,0.5,0.5,0.8
	l-0.1,0.2c-0.3-0.3-0.6-0.4-1.1-0.7c-0.3-0.1-0.6-0.4-1-0.6v-0.3c0.3,0.1,0.6,0.4,0.8,0.1c0.3-0.2,0.7-0.8,0.9-1.1l1.4-2.4
	c0.1-0.3,0.6-1,0.7-1.1c0.1-0.5-0.2-0.6-0.5-0.7l0.1-0.2c0.3,0.3,0.8,0.4,1.1,0.7c0.3,0.1,0.6,0.4,1,0.6c0.8,0.4,1.5,1.3,0.7,2.4
	c-0.7,1.3-2,1-2.8,0.5c-0.2,0-0.5-0.3-0.5-0.3L22.7,112.5z M101.6,113.6l-2-1.8l0.5,2.6C100,114.4,101.6,113.6,101.6,113.6z
	 M58.1,112.1c0,0.5-0.3,1.2-0.1,1.5c0,0.5,0.5,0.3,0.8,0.3v0.3c-0.3,0-0.6,0-0.9,0c-0.3,0.2-0.6,0.2-0.9,0.2v-0.1
	c0.5-0.2,0.6-0.3,0.7-0.8c0.1-0.8,0.1-1.4,0.2-2l0.7-4.1h0.3l2.4,4.6c0.2,0.3,0.5,0.7,0.6,1c0.2,0.1,0.5,0.1,0.8,0.1v0.3
	c-0.3,0-0.8,0-1.1,0.2c-0.5,0-0.9,0.2-1.2,0.2v-0.1c0.1-0.2,0.6-0.2,0.4-0.6c0-0.1-0.2-0.4-0.2-0.6l-0.6-1.1l-2,0.4
	C58.1,111.8,58.1,112.1,58.1,112.1z M103,109c-0.5-0.2-0.8-0.2-1.1,0.2l-0.2-0.3c0.3-0.1,0.5-0.1,0.6-0.5c0.2,0,0.5-0.2,0.6-0.3l6,2
	l-1.7-2.3c-0.3-0.3-0.6-0.9-0.9-1.2c-0.5-0.3-0.6-0.2-1.1,0l-0.2-0.2c0.3-0.2,0.6-0.3,0.9-0.5c0.1-0.3,0.3-0.5,0.6-0.6l0.2,0.2
	c-0.2,0.3-0.5,0.3-0.3,0.8c0.2,0.3,0.8,1.1,1.1,1.5l2.5,3.4l-0.2,0.1c-0.3,0-0.6-0.1-0.9-0.3l-5.5-1.8l2,2.8
	c0.2,0.3,0.6,0.8,0.9,1.1c0.3,0.2,0.6,0,0.9-0.2v0.2c-0.2,0.3-0.5,0.5-0.8,0.6c-0.3,0.2-0.5,0.3-0.8,0.6l-0.1-0.2
	c0.3-0.3,0.5-0.5,0.3-0.9c-0.2-0.3-0.5-0.8-0.8-1.1L103,109L103,109z M39.9,113.9h0.2c0.3-0.2,0.6-0.2,0.8-0.3
	c0.3-0.3,0.3-0.8,0.3-1.2c-0.2-0.7-0.5-1-1.1-1c-0.1,0.2-0.5,0.2-0.5,0.2s0,0.3,0,0.5C39.6,111.9,39.9,113.9,39.9,113.9z M19.2,107
	c0.1-0.3,0.6-1,0.7-1.1c0.1-0.5-0.2-0.6-0.5-0.7l0.3-0.2l3.4,2.1l-0.9,1.3l-0.2-0.1c0.6-1,0.2-1.2-0.6-1.8l-0.5-0.3
	c-0.2-0.1-0.2-0.1-0.5,0.2l-1.3,2.1c1,0.7,1.4,0.2,1.9-0.3h0.2c-0.3,0.5-0.6,0.8-0.7,1.1c-0.3,0.5-0.4,0.8-0.7,1.1l-0.2-0.2
	c0.6-1,0.2-1.2-0.6-1.7l-0.9,1.4c-0.1,0.3-0.4,0.6-0.4,0.9c0,0.5,0.4,0.8,0.7,0.9c0.8,0.4,1.3,0.6,2-0.2h0.2l-0.9,1.4l-3.9-2.6
	l0.1-0.2c0.2,0.1,0.5,0.3,0.8,0.1c0.1-0.2,0.6-0.8,0.9-1.1C17.8,109.2,19.2,107,19.2,107z M23.7,111.2c0,0.2,0.2,0.1,0.3,0.3
	c0.6,0.4,1.3,0.2,1.7-0.6c0.6-0.8,0.4-1.4-0.3-1.8c-0.3-0.3-0.3-0.3-0.6,0.2L23.7,111.2z M60,111.2l-1.3-2.4l-0.4,2.6L60,111.2z
	 M110.7,107.9c0,0.5,0.3,1.2,0.5,1.5c0.3,0.3,0.6,0,0.8-0.2l0.2,0.3c-0.2,0.2-0.5,0.3-0.8,0.5c-0.2,0.1-0.5,0.3-0.6,0.6l-0.2-0.3
	c0.3-0.3,0.3-0.5,0.3-0.9c-0.3-0.8-0.5-1.4-0.6-2l-1.2-4l0.1-0.2l4.5,3.1c0.1,0.1,0.8,0.6,0.9,0.6c0.3,0.2,0.6,0,0.9-0.2v0.3
	c-0.3,0.2-0.6,0.3-0.9,0.6c-0.3,0.3-0.6,0.5-0.9,0.8l-0.2-0.2c0.2-0.1,0.5-0.5,0.3-0.8c-0.1-0.2-0.5-0.3-0.6-0.5l-0.9-0.6l-1.7,1.2
	C110.6,107.7,110.7,107.9,110.7,107.9z M15.5,109.1c0,0.5,0,0.6,0.4,0.9l-0.1,0.2c-0.2-0.1-0.3-0.3-0.5-0.4s-0.5-0.1-0.6-0.3
	l0.1-0.8v-2.5c0-0.5,0-0.5-0.4-0.8l-0.7,1c-0.1,0.3-0.6,1-0.7,1.3c0,0.3,0.2,0.5,0.5,0.6l-0.1,0.2c-0.3-0.1-0.6-0.4-1-0.6
	c-0.3-0.3-0.7-0.6-1.1-0.7l0.1-0.2c0.3,0.1,0.5,0.3,0.8,0.1c0.3-0.2,0.7-0.8,0.9-1.1l1.6-2.4c0.1-0.2,0.6-0.8,0.7-1.1
	c0.1-0.3-0.2-0.5-0.4-0.6v-0.3c0.5,0.3,0.8,0.6,1.3,0.9c0.3,0.1,0.6,0.4,0.8,0.6c0.8,0.6,1.5,1.3,0.7,2.4c-0.7,1-1.5,1-2.3,0.6
	L15.5,109.1L15.5,109.1z M88,108.8c-1.2-0.2-3.1-0.5-5.8-1l2.4-0.8c1.3,0.3,2,0,2.2-0.8C87,107.1,87.4,108,88,108.8z M39.6,108.4
	l1-2.7l3.2,2.1C43.7,107.7,39.6,108.4,39.6,108.4z M111.9,106.2l-2.3-1.5l0.9,2.6C110.6,107.3,111.9,106.2,111.9,106.2z M47.1,107
	l-5.1-3.1l-4.7-3.1l-0.9-1.2c-0.3-0.3-0.7-0.4-1.1-0.2s-0.9-0.1-1.1-0.8c-1.2,0.7-2.5,0.5-3.8-0.8l-2.3-2.7L26,91.5L25.2,91
	c-0.4,0.3-0.9,0.4-1.4,0.3c-0.9-0.1-1.9-0.7-3-1.8c-0.6-0.6-2-2.9-4.1-7c-2.8-5.3-4.7-9.3-5.7-12c-0.7-2.2-1.2-3.6-1.4-4.2
	s-0.3-0.6-0.3,0s0.4,1.8,1,3.8s1.8,4.9,3.6,8.7c1.5,3.1,3,5.9,4.5,8.5c-3.4-3.6-5.8-7.1-7.3-10.3c-1.5-3.1-2.5-6.1-3-8.8
	c-0.2-1-0.4-2.4-0.4-4.4s0-3.1,0.1-3.3c0.2-0.7,0.5-1,1-0.9c0.3,0,0.9,0.7,1.9,2s2.3,4.2,4,8.8c1.7,4.5,2.7,7.5,3.1,8.9
	s0.8,2.6,1.2,3.7c0.4,1,0.9,2.1,1.4,3.2c0.8,1.6,1.6,2.8,2.5,3.4c1.1,0.8,1.9,0.9,2.4,0.4l-2.5-4.5c-0.2-0.1-0.5-0.1-0.8,0
	c-0.1,0-0.1,0-0.1,0l0,0c-0.1,0-0.2,0-0.3-0.1c-0.1,0-0.2,0-0.3-0.1c-0.1,0-0.1-0.1-0.2-0.2C21,85,20.9,85,20.9,84.9
	c-0.1-0.1-0.1-0.2-0.1-0.3c0-0.1-0.1-0.2-0.1-0.3c0-0.2,0-0.5,0-0.8c0.1-0.8,0.4-2.2,0.9-4.2c1-3.4,2.4-6.7,4.3-10.1
	c-0.2,1.5-0.3,2.7-0.3,3.7c-1.7,3.8-2.9,6.8-3.7,9.2c-0.4,1.7-0.4,2.5,0.1,2.5l0.5-0.3l-0.4-1l0.3-0.8l0.8,1.4l0.5-0.3l0.4,0.6
	l-0.4,0.6l3.1,4.4l0.8-0.6l0.5,0.6c-0.9,0.9-1.3,1.5-1.1,1.8c0.8,1.5,1.6,2.7,2.3,3.6c1.4,2,2.5,2.6,3.4,1.7c0.3-0.2,0.6-0.2,1,0.1
	c0.4,0.3,0.9,1,1.4,2.1L35,96.9l-2.5-2.4l-1.4-2.9c-1.2-1.7-2-3-2.5-3.9s-1.1-2-1.9-3.3s-1.7-2.7-2.8-4.3l0.2-0.8l2.2,2.7
	c2,2.5,3.3,4.4,4.1,5.7s1.3,1.6,1.4,0.9l0.4-1.3l0.6,0.3l-0.4,2.7l-0.1,0.8c0,0.6,0.1,1,0.4,1.1c0.3,0.1,0.6,0.5,0.8,1.3
	c0.1,0.5,0.9,1.4,2.2,2.8s2.7,2.6,4.1,3.6c1.4,1,2.6,1.8,3.6,2.4c0.9,0.6,1.4,1.2,1.3,1.8l1.3,0.3l-0.3-1.6l0.8-0.2
	c0.4,0.3,0.8,0.8,1,1.5c1.2,0.9,2.2,1.6,3.1,2.2L47.1,107L47.1,107z M79.4,106.6v-0.3c1.8-0.7,2.8-1.5,3-2.1
	c0.3-1.3,0.3-1.9-0.1-1.9c-0.9-0.1-1.7,0.2-2.4,0.7c-0.8,0.5-1.1,1.2-0.8,1.9l0.3,1.2c-0.1,0-0.2,0.1-0.3,0.1l-0.6-1.1l-2.4,1.2
	l2.3,0.3c0.3-0.1,0.5-0.1,0.7-0.2v0.2L79.4,106.6L79.4,106.6z M29.4,85c0.7,1,1.7,2.4,1.6,2.2c0.3-1.2,0.6-1.1,0.7-1.1
	c0.5,0.1,1.3,0.4,1.9,1c0.1,0.2,0.2,0.4,0.1,0.8L33.4,90c-0.3,1.6,0.4,3.2,1.9,4.9l2.1,2.4c1.4,1.4,2.4,2.3,3.1,2.6
	c0.3-0.8,0.8-1.4,1.5-1.8c0.6-0.3,4.4,1,11.4,3.9l3.4,3.7c0.4,0.2,1.1,0.2,1.9-0.1c1.4-0.9,2.8-1.1,4.3-0.8c1.5-0.8,2.6-0.7,3.2-0.3
	c0.8,0.7,1.6,1.3,2.3,2.1h2.7c1.5-2.6,2.7-3.6,3.5-4c4.7-2.3,7.8-4.1,9.4-4.5c0.3,0,0.5,0,0.6,0.2c0.6,0.6,1,1,1.1,1.3
	c1.6-1,2.4-1.8,2.7-2.7c0.4-1.1,1.3-2.3,2.6-3.6c1.3-1.3,1.9-2.5,1.7-3.5l-0.3-2.5c0.3-0.4,0.7-1.1,1.3-1.6c0.5-0.5,2.1,0.4,2.2,0.4
	c0,0,0.4-0.6,0.8-1.3l-0.1,0.1l-0.2,0.2l-3.7-1.7c-1,1.2-2.2,2.4-3.6,3.5l1.7,3.7l-0.2,0.2c-0.7,0.5-3.5,2.6-4.2,3L86.2,94l-3-2.7
	c-1.4,0.8-2.9,1.6-4.5,2.3l0.5,4l-0.3,0.1c-0.8,0.3-4.1,1.4-5,1.6l-0.3,0.1l-2-3.5c-1.5,0.3-3.2,0.6-5,0.8l-0.8,3.9h-0.3
	c-0.5,0-1.7,0-2.6,0s-2.1,0-2.6,0H60l-0.8-4c-1.6-0.1-3.2-0.4-5-0.8l-2,3.5l-0.3-0.1c-0.8-0.2-4.1-1.3-5-1.6l-0.3-0.1l0.5-4
	c-1.5-0.7-3-1.4-4.5-2.3l-3,2.7l-0.3-0.2c-0.7-0.5-3.5-2.5-4.2-3l-0.2-0.2l1.7-3.7c-1.3-1.2-2.5-2.4-3.6-3.5L29.4,85L29.4,85z
	 M51.7,106.2l-3-2c-1.2-1.4-2.1-2.4-2.6-3.1c-0.5-0.6-1.1-1.1-1.6-1.4c-0.7-0.4-1.3-0.5-1.8-0.4c-0.3,0.1-0.7,0.5-1,1.4l-0.1-0.1
	c0.2-0.8,0.5-1.3,0.9-1.4c0.4-0.2,0.9-0.1,1.5,0.1l3.3,1.6l5.6,2.1c1.4,1.5,2.2,2.5,2.5,3C54.3,106,53.1,106.1,51.7,106.2z
	 M73.6,104.3c0.5-0.6,1.3-1.2,2.1-1.7c3.9-1.9,6.5-3,7.8-3.4c0.2-0.1,0.4,0,0.6,0.2l0.5,0.7l-0.8,0.5c-0.5,0.4-1,0.5-1.7,0.5
	c-0.6,0-1.4,0.1-2.4,0.6c-1,0.4-1.6,1-1.6,1.8c-0.2,0.5-0.4,0.9-0.8,1c-1,0.5-1.9,1-2.7,1.4l-2.1-0.1L73.6,104.3z M14.6,105.2
	c0.8,0.6,1.3,1,2.2-0.1c0.4-0.6,0.4-1.4-0.1-1.7c-0.2-0.1-0.5-0.3-0.5-0.3c-0.2,0-0.2,0.2-0.3,0.2C15.9,103.2,14.6,105.2,14.6,105.2
	z M102.3,88.6c-0.9,1-1.2,2.1-0.9,3.1c-1.3,0.7-2.5,1.7-3.7,3s-2.1,2.4-2.7,3.4s-1.3,1.5-2,1.6c-0.8,0.4-1.7,0.2-2.7-0.5l-0.3,1.7
	l-4.6,2.8l-2.3,1c0.2-0.5,0.3-1.2,0.3-2.3l0.8-0.7c3.2-1.6,5-3.1,5.5-4.5c0.6-1.1,1.3-2.1,2.1-2.8c0.7-0.8,1.3-1.7,1.6-2.8l0.1-1.6
	l-0.2-1.7c0.7,0.8,1.4,1,2,0.5c1-1.8,2-3.4,3.1-5c1.1-1.5,2.3-3,3.5-4.3s2.3-2.4,3.2-3.4l-0.1,1.7c-2.7,3.4-4.5,5.7-5.1,6.9
	C97.6,88.2,96,91,95.2,93c-0.5,1.1-1.2,2.1-2.2,2.7c-0.7,0.4-1.3,0.8-1.6,1.2c-0.3,0.6-0.1,0.7,0.5,0.5c0.5-0.5,1-0.8,1.5-1
	c1-0.5,3.2-2.9,6.4-7.1l-0.1-2.4l0.8-1.3c0,1.3,0.1,2.1,0.3,2.2c0.3,0.1,0.7-0.2,1.1-1.1c0.5-0.9,1.7-3.3,3.5-7.4
	c-0.4,1.2-0.4,2.3-0.1,3.2c-1.1,0.8-1.4,2.1-0.9,4L102.3,88.6L102.3,88.6z M49.7,64.3L39.5,79.1l-0.4-0.5c-2.4-2.6-4.3-5.6-5.6-8.8
	c-0.3,1.3-0.7,2.2-1.1,2.5c-0.1,0.1-0.2,0.2-0.3,0.4c0,1.1-0.3,3.9-1,6.5c-0.5,1.8-1.3,3.4-1.9,4.4c0.1,0.2,0.3,0.4,0.4,0.5l3.6-1.6
	l0.2,0.2c1.1,1.3,2.4,2.5,3.9,3.9l0.2,0.2l-1.7,3.7c0.8,0.6,2.8,2.1,3.7,2.6l3-2.7l0.3,0.2c1.6,0.9,3.2,1.8,4.9,2.5l0.3,0.1l-0.5,4
	c1,0.4,3.3,1.1,4.3,1.4l2-3.5l0.3,0.1c1.9,0.4,3.7,0.7,5.4,0.8h0.3l0.8,3.9c0.5,0,1.3,0,2.3,0c0.9,0,1.8,0,2.3,0L66,96h0.3
	c2-0.2,3.8-0.5,5.4-0.9L72,95l2,3.5c1-0.3,3.3-1.1,4.3-1.4l-0.5-4L78,93c1.7-0.7,3.4-1.6,4.9-2.5l0.3-0.2l3,2.7
	c0.9-0.6,2.8-2,3.6-2.6l-1.7-3.6l0.2-0.2c1.5-1.3,2.8-2.6,3.9-3.9l0.2-0.2l3.7,1.7c0.5-0.6,1.3-1.8,2-2.7c-0.1-0.2-0.2-0.4-0.2-1
	c-2.1-2.1-4.6-3.6-4.1-5.8c-0.2-0.4-0.7-1.5-0.7-2.1c0-2,2.1-2,3.1-1.2c-0.1-1.1-1.5-3.2-2.5-5.1c-1.4,4.7-3.8,9.1-7.2,12.7
	l-0.4,0.5l-9.8-14.8l5.1,17.1l0.4,1.3l-1.1-0.7L65.8,72.1l10.9,14.2l-0.6,0.3c-4.1,1.8-8.7,2.8-13.2,2.8c-4.7,0-9.2-1-13.4-2.9
	l-0.6-0.3L60,72.3L45.3,82.5l-1.1,0.7l0.4-1.3L49.7,64.3L49.7,64.3z M27.9,91.2l0.8-1l1.8,2.5l1,1.8l0.3,1c-0.6-0.3-1.2-0.8-1.6-1.4
	l-1.1-1.4C29,92.8,27.9,91.2,27.9,91.2z M117.7,73.4c-0.2,1.1-0.5,2.1-1.1,2.9c-1.9,2.1-2.7,3.4-2.3,3.8c0.5,0.9,0.4,1.8-0.3,2.9
	c-1,1.2-2.3,2.6-4,4.1c0.5,0.9,0.1,1.7-1,2.3c-1.3,0.7-2.8,1.4-4.4,1.9c3-2.2,4.8-4.6,5.5-7.2c1-0.9,1.8-1.4,2.5-1.7
	c0.6-0.4,0.8-0.6,0.3-0.5c-0.8,0.3-1.7,0.8-2.6,1.5c0.9-1.7,1.5-3.6,1.9-5.6c1.8-1.7,2.9-3.1,3.4-4.1c0.6-1,0.7-1.2,0.1-0.6
	c-0.7,1.1-1.7,2.3-3.2,3.6c0.6-2,1.2-4.2,1.7-6.6c0.2-1.4,0.2-1.7-0.2-0.8l-0.7,2.4c-0.3-1-0.7-1.7-1.1-2.2l0.9,2.9
	c-0.2,1.1-0.6,2.8-1.3,4.9c-0.6-1.8-1.5-3.5-2.5-4.9c-1-1.2-1.1-1.2-0.5-0.1c1.1,1.5,1.9,3.5,2.6,6c-0.6,2.2-1.2,4-1.9,5.5
	c-0.6-0.8-1.1-1.4-1.7-1.7c-0.5-0.2-0.5-0.1,0,0.4c0.6,0.6,1.1,1.2,1.4,1.8c-0.5,1.3-1.3,2.5-2.2,3.5s-1.8,1.8-2.6,2.5
	c1.1-1.7,1.5-3.6,1.1-5.6c0-0.4,0.3-0.7,0.9-0.9c0.6-0.2,0.8-0.5,0.6-0.8c-0.5-1-0.8-1.8-0.8-2.4c0.4-0.2,0.9-0.2,1.6,0
	c0.6-0.4,0.5-1-0.2-1.7c-0.7-0.8-1.2-1.8-1.3-3.3c0-0.8,0.5-1.1,1.6-0.9c0.5,0,0.5-0.6,0.1-1.8l-1.2-1.6c-0.8-1.8-0.5-2.5,1-2
	l1.8,1.1c1.2,0.5,1.8-0.3,1.7-2.4c0-0.5,0.4-0.6,1.1-0.3c0.7,0.3,1.4-0.3,2-1.6c0.6-0.6,1.1,0,1.4,1.8c-0.1,2.4,0.5,3.6,1.8,3.4
	C117.8,71.6,117.9,72.3,117.7,73.4L117.7,73.4z M62.7,70.1L50.4,85.6c3.9,1.7,8.1,2.6,12.4,2.6c4.2,0,8.4-0.9,12.2-2.5L63,70.1
	L62.9,70L62.7,70.1z M24.6,84.8l0.4-0.4l1.9,3.2L26.7,88L24.6,84.8z M28.7,82.9l0.7-1.6c0.8-1.3,1.4-3.7,1.9-7.4
	c0.3-2.9,0.3-6.1,0-9.7s-0.7-6-1.2-7.4c-0.9,0.2-1.8,2.2-2.7,6c-0.7,3-1.1,5.8-1.2,8.4c-0.1,3.5,0.2,6.9,0.8,10.1l0.9,1L28,77
	l0.1-3.9c0.1-5.9,0.6-10.8,1.3-14.6c0.3-0.5,0.3-0.3,0.1,0.6c-0.3,3.7-0.5,7.1-0.6,10s-0.1,5.3-0.2,7.1c-0.1,1.7-0.1,4-0.1,6.8
	C28.5,83.1,28.7,82.9,28.7,82.9z M24.7,66.4c-1.7,2.7-2.9,5.4-3.5,8c-0.8,3.4-1.1,6-0.9,7.8c0.2-1.5,0.4-2.7,0.7-3.8
	c1.1-3.4,2.7-6.9,4.7-10.3c0-0.9,0.3-2.3,0.8-4.2c-0.5,0.7-1,1.4-1.5,2.1v0.2L24.7,66.4z M97.7,76.2c-0.2,0.4-0.4,0.8-0.7,1.2l2.7,3
	l-0.2,0.3c-0.1,0.1-0.2,0.3-0.3,0.5c0.5-0.6,1-1.1,1.4-1.6c0-0.2-0.2-0.5-0.4-0.8s-0.9-1-2-1.9C98.1,76.5,97.9,76.4,97.7,76.2z
	 M56.3,46.6l-0.1,1.5l-1.4-0.4l-19.7,0.5l15.6,11.9l1.4,0.5l-0.8,1.2l-5.6,18.9l16.2-11.2l0.9-1.2l0.9,1.2L80,80.7l-5.6-18.8
	l-0.8-1.3l1.4-0.5l15.7-12l-19.6-0.4l-1.5,0.4v-1.5L63,28L56.3,46.6L56.3,46.6z M98.7,80.3c0,0.1,0,0.2,0.1,0.2l0.1-0.1
	C98.8,80.5,98.7,80.3,98.7,80.3z M25.7,80.1l-1.5-1.9l1.1-2.7C25.3,76.9,25.4,78.5,25.7,80.1z M102.7,73.3c-0.1,0.4-0.3,0.9-0.5,1.5
	s-0.4,1.1-0.7,1.5c-0.3,0.5-0.2,1.3,0,2.4c0.8-1,2.1-2.4,3.8-4c0.3-2.6,0.2-4-0.3-4s-0.8,0.5-1,1.5c-0.2,0.9-0.3,0.9-0.3,0
	c-0.1,0.4-0.2,0.6-0.3,0.8l-0.1,0.3L102.7,73.3z M100,73l-0.7-0.1c-0.4,0.9-0.9,1.9-1.3,2.8c0.1,0.1,0.2,0.1,0.2,0.2
	c0.8,0.6,1.6,1.3,2.4,2.1C100.5,76.4,100.3,74.7,100,73z M75.2,61.1L75.2,61.1v0.3l10.9,16.4c3.3-3.7,5.7-8.2,6.9-12.9
	c-0.2-0.4-0.3-0.8-0.3-1.1c-0.1-0.8,0.3-1.3,0.8-1.4c0.4-2.6,0.6-5.2,0.3-7.9C93.8,54.5,75.2,61.1,75.2,61.1z M98.1,73.8
	C98,73.6,98,73.4,98,73.2c0.3-1.8,0.4-2.8,0.3-3.1L98,69.8l0.3-0.3c0.2-1.3,0.2-2.6-0.1-3.8c-0.2-1.2-0.5-2.1-0.9-2.6
	s-1.1-0.2-2.3,1.1c-0.3-0.3-0.6-0.4-0.8-0.5c-0.1,0.5-0.2,0.9-0.3,1.4c0.1,0.1,0.1,0.2,0.2,0.4c0.5,0.8,1.1,1.7,1.7,2.8
	c0.3,0.7,0.6,1.4,0.8,2.1s0.2,1.4,0,2.2c-1.3-1-2.2-1.2-2.5-0.7c-0.4,0.5-0.4,1.1-0.2,1.6c0.3,0.5,0.5,1,0.9,1.4
	c-0.4,0.8,0,1.7,1.1,2.7c0.1,0.1,0.3,0.2,0.4,0.3l-0.2-0.2l0.2-0.3c0.3-0.5,0.6-1.1,0.9-1.6c-0.5-0.5-1-1-1.3-1.5
	c-0.3-0.4-0.2-0.5,0.3-0.1c0.4,0.4,0.8,0.8,1.2,1.2C97.6,74.8,97.8,74.3,98.1,73.8L98.1,73.8z M50.5,61L32,54.1
	c-0.2,1.7-0.2,3.5-0.1,5.2c0.9-0.3,1.8-0.3,1.9-0.2c0.2,0.2,0.2,0.6,0,1.2l-0.4,0.8c0.2-0.1,0.4-0.2,0.6-0.2c0.2,0,0.4,0.4,0.5,1.1
	c0.2,1-0.2,3.7-0.7,6.1c1.3,3.4,3.2,6.5,5.6,9.3l11.2-16.3L50.5,61C50.6,61.1,50.5,61,50.5,61z M100.5,73.1c0.3,1.2,0.5,2,0.5,2.6
	c0.3-0.4,0.5-0.8,0.7-1.2c0.2-0.3,0.4-0.7,0.6-1.2C102.4,73.3,100.5,73.1,100.5,73.1z M19.3,54.4c-0.4,0.8-0.7,1.5-0.9,2.2
	c-0.7,1.9-1.1,3.4-1.2,4.3c0.7,3.6,1.3,5.7,1.8,6.2c0.6,0.5,0.7,1.1,0.3,1.8c-0.1,0.4,0,1.2,0.3,2.4c0.4,1.2,0.6,2.1,1,2.8
	c0.2-1,0.5-2,0.9-3c-0.4-1.2-0.8-2.4-0.9-2.9l-0.1-0.3l3.5-2c-0.4-1.8-0.6-3.4-0.8-4.9l-4-0.8v-0.3c0-0.8,0-4.3,0-5.2L19.3,54.4
	L19.3,54.4z M101.5,61.8c0-0.4-0.1-0.7-0.1-0.9c-0.1-0.5-0.2-0.9-0.4-1.3c-0.2-0.4-0.4-0.7-0.6-0.8s-0.4,0-0.7,0.4s-0.5,0.5-0.6,0.2
	s-0.4-0.6-0.9-0.9c-0.5-0.3-0.9-0.1-1.3,0.6c-0.4,0.7-0.9,2-1.3,3.9c0.9-1,1.6-1.5,2.1-1.5s0.8,0.2,0.8,0.6c0,0.3,0.2,0.8,0.4,1.4
	c0.2,0.6,0.3,1.5,0.3,2.7s0.1,1.9,0.1,2.2c0.1,0.3,0,0.5-0.1,0.8s-0.2,0.4-0.6,0.6c0.4,0,0.4,0.1,0.4,0.2s-0.1,0.6-0.4,1.4
	s-0.4,1.4-0.4,1.6c0,0.1,0,0.3,0,0.5c0.2-0.4,0.3-0.7,0.5-1.1l0.1-0.3l1.1,0.1c0-0.1,0-0.3-0.1-0.4c-0.2-1.3-0.1-1.3,0.3-0.1
	c0,0.2,0.1,0.3,0.1,0.5l2.5,0.3c0.1-0.1,0.1-0.1,0.1-0.1c0.2-0.5,0.4-1.2,0.7-2c-0.1-0.3-0.2-0.5-0.3-0.5c-0.3-0.1-0.6,0-1,0.4
	c-0.4,0.3-0.7,0.5-1,0.5s-0.5-1.2-0.5-3.5c0-0.4,0.1-0.7,0.2-1l-0.1-0.1l0.1-0.3C101.1,64.5,101.4,63.1,101.5,61.8L101.5,61.8z
	 M32.1,66L32.1,66c0.2,0.9,0.3,2.6,0.3,5.1c0.2-0.8,0.4-1.7,0.6-2.4C32.6,67.8,32.3,66.9,32.1,66z M106.4,55.8c0,1.4,0,3.4,0,4.1
	v0.3l-4,0.8c0,0.3,0,0.5-0.1,0.8c0.2,1.6,0.3,3.1-0.1,3.7c-0.1,0.2-0.2,0.4-0.4,0.6L105,68l-0.1,0.3c-0.1,0.3-0.3,1-0.5,1.8
	c0.3-0.2,0.8-0.1,0.8,0l0,0l0,0c0.3-1.3,0.6-2.5,2.6-1.6c0.6-1.8,1-3.9,1.2-6.1c0-0.1,0-1,0.2-2.1c-0.6-1.7-2.4-3.6-2.4-3.7
	C106.7,56.2,106.6,56,106.4,55.8L106.4,55.8z M23.4,67.2l-1.9,1.1c0.1,0.4,0.3,1,0.5,1.7C22.4,69,22.9,68,23.4,67.2z M101.4,66.6
	c-0.2,0.5-0.1,1.7-0.1,2.1c0,0.5,0.2,1.3,0.3,1.2c0.4-0.3,1-0.7,1-0.7c0.3-0.2,0.9-0.1,1.3,0.2c0.1-0.4,0.3-0.8,0.3-1.1
	C104.2,68.2,101.4,66.6,101.4,66.6z M110.4,59.8c0.3-0.1,0.9,0,1.5,0c-0.6,3.5-1.4,7.3-2,9.6l-1-0.5
	C109.8,65.6,110.2,61.9,110.4,59.8z M117.3,64.2c-0.6,0.2-1,0.5-1.2,0.7c0.8,1,1.1,2.1,1.1,3.2l0.8,1.4c0.8-0.2,1.3-0.5,1.6-0.8
	s0.4-0.7,0.3-1.1c-0.1-0.5-0.6-0.8-1.6-1c1.1-0.7,1.8-1.8,2.2-3.4c0-0.7-0.5-1-1.4-1c0.4-0.8,0.6-1.6,0.7-2.2c0-0.7-0.1-1.3-0.5-2
	c-0.8-0.5-1.7-0.4-2.8,0.5c-0.8-0.4-1.7,0-2.7,1c-0.6,2.4-1.1,4.7-1.4,6.9c0.6,0.3,1.4-0.3,2.4-1.8c-0.3-0.5-0.5-1.2-0.6-2.2
	c0.1-0.8,0.2-0.8,0.4,0.1c0.1,0.7,0.3,1.3,0.6,1.5c0.6-1.2,1.3-2.3,2.1-3.4c0.5-0.6,0.6-0.6,0.4,0c-0.9,1.3-1.6,2.7-2,4.5h0.1
	C115.9,65,116.5,64.3,117.3,64.2C117.2,64.2,117.2,64.2,117.3,64.2s0.2-0.1,0.3-0.1C118,63.8,117.9,64.1,117.3,64.2L117.3,64.2z
	 M33.3,66.8c0.2-1.2,0.4-2.4,0.4-3.4c0.1-1.4-0.2-1.8-0.9-1.1L32.3,63c0.1,0.3,0.1,0.6,0.2,0.9c0.1-0.1,0.2,0,0.1,0.4l0,0
	C32.8,65.1,33.1,66,33.3,66.8z M85.8,21.7l-2.6,2.4L82.9,24c-1.6-0.9-3.2-1.8-4.9-2.5l-0.3-0.1l0.5-4c-1-0.4-3.3-1.1-4.3-1.4l-2,3.5
	l-0.3-0.1c-1.9-0.4-3.6-0.7-5.4-0.9h-0.3l-0.8-3.9c-0.5,0-1.3,0-2.3,0c-0.9,0-1.8,0-2.3,0l-0.8,3.9h-0.3c-1.9,0.2-3.8,0.5-5.4,0.9
	l-0.3,0.1l-2-3.5c-1,0.3-3.3,1-4.3,1.4l0.5,4l-0.3,0.1c-1.7,0.7-3.3,1.5-4.9,2.5l-0.3,0.2l-3-2.7c-0.4,0.2-0.9,0.6-1.5,1.1
	c-1.4,2.6-3.1,5.6-3.3,5.7c0.9,5.5-6.9,16.5-10.5,19.7l0.7,0.4l-0.1,0.3c-0.4,1.9-0.7,3.7-0.8,5.4v0.3l-4,0.8c0,1,0,3.5,0,4.5l4,0.8
	v0.3c0.1,1.4,0.3,2.9,0.7,4.5c0.4-0.6,0.8-1.1,1.2-1.7l0.6-0.5c0.7-3.1,1.5-5.7,3.5-6.9c0,0,0.3-0.2,0.4,0c0.1,0.3,0.3,0.7,0.4,1.2
	c0-1.3,0.1-2.5,0.2-3.8L31,53l16.7,6.2L33.4,48.4l-1.1-0.8h1.3l18.2-0.4l-17.2-5.1l0.3-0.5c4.6-8,12.5-13.7,21.6-15.4l0.6-0.1
	l-0.8,17.7l5.9-16.9l0.4-1.2l0.4,1.2L69,44l-0.5-17.9l0.6,0.1c9.1,1.9,16.9,7.6,21.4,15.7l0.3,0.5L74,46.9l17.9,0.4h1.3l-1,0.8
	l-14.4,11l16.9-6l0.1,0.6c0.3,2.9,0.2,5.9-0.3,8.8c0.2,0.1,0.4,0.2,0.6,0.3c-0.2-2.7,1.4-5.5,2.9-5.2c0.5,0.1,1.3,0.4,1.3,0.8
	c0.2-0.8,1.2-0.8,1.4-0.8c0.4,0.2,0.8,0.5,1,1.2c0.1,0.4,0.2,0.8,0.4,1.3l3.6-0.7c0-1,0-3.5,0-4.5l-4-0.8v-0.3
	c-0.2-1.9-0.5-3.8-0.9-5.4l-0.1-0.3l1.6-0.9c0,0,0,0,0-0.1c-1.1,0-1.6-1-2-1.6c-0.8-1.1-1.4-2.2-1.6-2.4c-1-1.1-3.1-2.3-3.6-2.5
	c-1.8-0.4-2-2.7-1.4-3.1c0.3-0.2,0.8-0.5,0.9-0.4c-0.3-0.7-2.1-2.5-1.3-3.9c0.2-0.4,0.9-0.8,1-0.7c-0.3-0.3-0.4-0.8-0.5-1.3
	l-1.5,0.7l-0.2-0.2c-1.2-1.4-2.5-2.7-3.9-3.9L88,27.6l1.7-3.6c-0.6-0.5-1.9-1.4-2.9-2.1c-0.2,0-0.5,0-0.7-0.1
	C86.1,21.8,85.9,21.8,85.8,21.7z M32.2,61.9l0.9-1.3c0.4-0.7,0.3-1-0.3-0.8c-0.3,0.1-0.5,0.2-0.8,0.4C32,60.7,32.1,61.3,32.2,61.9z
	 M15.2,59.2c-0.4,0.2-0.7,0.2-1,0.1c-0.6-0.2-1.1-1.1-1.6-2.5s-0.6-3.8-0.5-7c0.5-9.3,2.1-16.3,4.9-21c0.6-0.9,0.7-0.7,0.1,0.6
	c-1.2,2.6-2.3,6.8-3.1,12.8s-1,9.9-0.7,11.8c0.8-3.9,1.6-7,2.3-9.4c0.4-2.1,1.4-6,3.2-12c0.7-2.1,1.1-4,1.3-5.7s0.2-3.5,0-5.3
	c-0.2-0.5-0.7-0.3-1.4,0.6c-3.5,4.1-5.9,8.4-7,13c-0.8,3.3-1.3,6.7-1.5,10.1c-0.1,2.9,0.1,5.4,0.6,7.5s1,3.8,1.5,5.1
	s1.4,2.2,2.7,2.8C15,60.5,15.2,59.3,15.2,59.2L15.2,59.2L15.2,59.2z M23.5,47.3c2.6-2.5,5.4-6.3,8.2-11.4c-0.1,0,0-0.1,0-0.1
	c0.8-1.5,1.3-3,1.6-4.4s0.3-2.3,0-2.8c-1.2,0.1-2.7,1.1-4.3,3c-2.7,3.7-4.8,7.1-6.3,10l-2.8,6.5l-2.4,6.2c-0.6,1.7-0.4,3.5-2.2,5.3
	v1.1c1.7-2.2,1.8-3.8,2.1-4.7s1.1-2.1,2-3.6c0.8-1.5,1.8-3.1,2.7-4.9l0,0l0,0c0,0,0-0.1,0.1-0.1c0.9-1.8,3.7-6.1,8.3-13.1
	c0.5-0.5,0.4,0.1-0.5,1.6L27.7,40l-4.5,7.3H23.5L23.5,47.3z M103.9,47.3c-0.2,0.9-0.1,1.7,0.3,2.5c0.4,0.9,1.1,2.1,2,3.6
	s1.6,2.5,2.1,3.2s1.2,1.7,2.1,3l1.7-0.1l0.3-3.3c1.2-0.4,1.9-1,1.9-1.9c0-3.4-0.2-5.8-0.6-7c-1.6-2.1-3.1-3.6-4.6-4.7
	c-0.6-0.6-0.6-0.7,0.1-0.3c1.7,1.1,3.1,2.2,4.1,3.2l-1-4.2c-1.3-1.1-2.5-2.5-3.5-4c-0.5-0.7-0.5-0.8,0.1-0.3c1.2,1.5,2.3,2.5,3.2,3
	c-0.5-1.5-1-3.1-1.6-4.7c-1.7-2-3.2-3.3-4.4-4.1c-0.9-0.6-0.9-0.8,0-0.5c0.7,0.2,1.9,1,3.6,2.5c-0.6-1.6-1.2-3.1-1.8-4.5
	c-0.7-1-1.6-1.9-2.6-2.8c-0.4-0.4-0.3-0.4,0.3-0.1c0.6,0.4,1.2,0.9,1.9,1.7l-0.9-2.9c-0.1-0.7,0-0.7,0.3,0l1,2.2l1.5,3.8
	c0.2-0.7,0.3-1.5,0.3-2.5c0.2-1.2,0.3-1.1,0.3,0.1c0,1.3,0,2.4-0.3,3.4c0.7,1.7,1.3,3.5,1.9,5.4c0.7-1,1.2-2.3,1.5-4
	c0.2-1.2,0.3-1.1,0.3,0.3c-0.2,1.7-0.6,3.2-1.3,4.3c0.6,2.4,1.1,4.5,1.6,6.2c0.5-0.3,1-1.2,1.5-2.5c0.5-0.7,0.5-0.6,0.2,0.3
	c-0.6,1.8-1.1,2.9-1.5,3.2c0.4,1.8,0.7,3.4,0.9,4.8c0.2,1.4,0.2,2.8,0.1,4.1c0.3-0.2,0.5-0.8,0.5-1.8c0-0.5,0.1-1.2,0.4-2
	s0.8-1.8,1.4-3c0.6-1.1,0.6-1.6-0.1-1.5l-1.2,0.3c-0.4,0-0.6-0.2-0.6-0.6c0.1-0.8,0.4-1.5,1.1-2.1c0.6-0.6,0.9-1.1,0.9-1.6
	c0.1-0.4-0.2-1.3-0.8-2.5c-0.9,0.3-1.5,0.6-1.8,1s-0.5,0.4-0.5,0s0.2-0.9,0.6-1.7c0.4-0.7,0.6-1.5,0.4-2.4c-0.2-0.8-0.6-2-1.3-3.5
	c0.5-2.1-0.1-2.8-1.8-1.8c0.2-1.8-0.1-3.3-1-4.6c-0.7-1.4-1.4-1.7-2.1-0.9c-1.5-2.1-2.6-3.3-3.3-3.6c-0.7-0.3-1.1-0.3-1.2,0.1
	s-0.4,0.9-0.7,1.6c-0.3,0.6-0.3,1.6,0,3c-1,0.3-1.4,0.8-1.2,1.5l0.7,2.1c0.5,0.7,0.9,1.4,1.1,2.1c0.2,0.7,0.1,1.5-0.2,2.3
	c1.4-0.8,2.4-0.9,2.9-0.1c0.2,0.7,0.2,1.3,0.1,1.8s-0.1,1.5-0.1,2.9c0,0.3,0.3,0.6,1.2,0.9c0.8,0.2,1.1,0.7,0.8,1.3
	c-0.2,0.2-0.6,0.1-1.2-0.3c-0.6-0.4-1-0.4-1.3,0c-0.6,0.8-0.1,1.8,1.4,2.8c2.9,1.9,4.1,3,3.6,3.3c-0.9,0.2-1.2,0.7-0.9,1.4
	c0.1,0.5,0.7,1,1.6,1.5c0.9,0.6,1.3,1.5,1,2.7c-0.1,1.3-0.6,2-1.4,2.3c-0.3-1.3-0.4-2.1-0.3-2.5c0-0.4-0.3-0.7-0.9-1
	s-1.5-2.4-2.5-6.2l-1.4-0.1c1.3,4.5,2.2,6.8,2.5,6.8s0.7,0.6,1.1,1.4c0.1,0.7,0.1,1.6,0,2.9c-0.1,1.2,0.4,1.8,1.3,1.8l-0.6,0.8
	c-0.5-0.1-0.9-0.4-1.2-0.9c-0.4-0.6-0.6-1.3-0.7-2c0-0.7,0-1.3,0-2.1c0-0.7-0.3-0.9-1-0.6c-0.7,0.3-1.1,0.3-1.3,0.1
	s-0.3-0.5-0.4-0.8c0-0.3,0.1-0.9,0.5-1.9c0.1-0.7,0.1-1.2-0.1-1.4c-0.2-0.3-0.6-0.4-1.3-0.3c-0.7,0.1-0.9-0.6-0.7-2l0.1-0.4
	C105.1,46.6,103.9,47.3,103.9,47.3z M14.3,57.9L14,57.4c-0.3-0.4,0.2-3.1,1.4-8C15,53,14.7,55.9,14.3,57.9z M17.2,51.8l0.5-2l0.4-2
	l1.1-0.2l-1.4,3.7l-1,3.2C16.9,54.5,17.2,51.8,17.2,51.8z M23.6,48.3c-0.3,0.2-0.5,0.3-0.7,0.3c-0.2,0.1-0.9,0.8-1,0.9
	c-1,1.7-1.9,3.3-2.5,4.7l3.9-0.8c0.1-1.6,0.4-3.2,0.8-4.9L23.6,48.3z M102.6,48l-0.9,0.5c0.4,1.5,0.6,3.2,0.8,4.9l3,0.6
	C104.3,52.1,103.3,50.1,102.6,48z M70.4,46.7L70.4,46.7l0.2,0.1l19-5.3c-4.3-7.4-11.5-12.6-19.8-14.6L70.4,46.7z M55.4,46.6
	l0.8-19.7c-8.3,1.8-15.6,7-20,14.3l18.9,5.6h0.1L55.4,46.6z M102.3,41.9c-0.2,0.5-0.3,1-0.3,1.5l1.2,3.3l0.4-0.3
	c0.1-0.3,0.2-0.6,0.4-1c-0.3-1.1-0.9-2.9-1.2-3.7L102.3,41.9z M105.1,46.5l0.7-2.4c0.3-1.5-0.3-1.7-1.6-0.7c0.1,0.4,0.3,0.8,0.4,1.2
	l0,0c0.2-0.3,0.3-0.2,0.1,0.3l0,0c0.2,0.6,0.4,1.2,0.4,1.5V46.5z M104.2,46.1L104.2,46.1L104.2,46.1L104.2,46.1z M100.5,42.1
	l-1.6,0.2c0.5,0.4,0.9,0.9,1.1,1.4c0.8,1.5,1.5,2.3,2,2.3l-1.4-3.6C100.6,42.3,100.6,42.2,100.5,42.1z M22.3,40.1
	c-1,1.8-1.7,3.4-2.2,4.8l-0.5-0.1l1.4-4.4L22.3,40.1z M16.9,44.3c0.3-2.1,0.8-3.9,1.3-5.6l0.5,0.7L16.9,44.3z M104.1,43.1
	c0.2-1.1,0.7-1.8,1.2-2.3c0.6-0.5,0.9-1.2,0.8-2s-0.1-1.5,0-2.2s0-1.2-0.3-1.4c-1-0.1-2.2,0.9-3.8,2.9l0.8-1.9
	c0.8-2.3,0.9-3.9,0.5-4.8c-0.5-0.6-0.9-1-1.4-1.2c-0.4,0.1-0.8,0.6-1.4,1.4c-0.6,0.7-1,0.8-1.1,0.4l0.3-2.1c0-0.9-0.4-1.5-1.1-1.9
	c-0.7-0.3-1.5-0.8-2.4-1.3c-0.1,0.5-0.3,1.1-0.6,1.6s-0.5,1.1-0.6,1.6l1.4-0.7l0.2,0.2c0.1,0.2,0.4,0.5,0.7,0.9h0.1
	c0,0.1,0,0.1,0.1,0.2c0.8,1.1,1.9,2.6,2.2,3.1l0.2,0.3l-1.1,1.2c0.2,0.6,0.3,1.3,0.5,1.9c0.3-1.2,0.8-2.5,1.6-3.8
	c0.9-1.4,1-1.4,0.4-0.1c-1.1,2.4-1.7,4.1-1.6,4.9l1.4,3.2l1.2-0.1c0.5-1.3,1.2-2.6,2.2-3.9c0.5-0.7,0.6-0.6,0.1,0.2
	c-0.8,1.3-1.5,2.6-1.9,3.6l0.8-0.1l0.1,0.3C103.6,41.6,103.8,42.3,104.1,43.1L104.1,43.1z M101.9,42l-0.6,0.1l0.3,0.8
	C101.7,42.5,101.8,42.3,101.9,42z M94.9,30.9L94.9,30.9c-0.2,0.5,0,1.2,0.6,2.1c-1.6,0-2,0.8-1.3,2.3l0.5,0.8c0.4,0.5,0.7,1.1,1,1.8
	c-1-0.1-1.5,0.1-1.6,0.6c0,0.7,0.2,1.2,0.8,1.4c1.7,0.7,3,1.5,3.9,2.2l-0.1-0.2c-0.3-0.6-0.5-1.2-0.8-1.9c-0.5-0.3-1.1-0.5-1.8-0.8
	s-0.7-0.4,0-0.3c0.6,0.2,1.1,0.5,1.6,0.7c-0.4-0.9-0.9-1.8-1.4-2.6l-0.2-0.3l0.8-0.8c-0.4-0.2-0.7-0.5-1.1-0.7
	c-0.6-0.5-0.6-0.5,0-0.2c0.5,0.2,0.9,0.5,1.3,0.7l0.9-1c-0.3-0.9-0.5-2-0.7-3.1c-0.4-0.6-0.9-1.2-1.2-1.5
	C96.1,30.3,94.9,30.9,94.9,30.9z M99.1,40.9c0.1,0.2,0.2,0.4,0.3,0.6l0.5-0.1C99.6,41.2,99.3,41.1,99.1,40.9z M97.5,36.5L97,37
	c0.6,1.1,1.2,2.2,1.8,3.3c0.6,0.3,1.1,0.6,1.4,0.8c-0.5-1.1-1-2.2-1.5-3.5C98.4,37.3,98,36.9,97.5,36.5z M37.3,15.6
	c0.7-0.4,1.2-0.6,1.5-0.5c0.2,0.5,0.2,1.1,0.1,1.9c-0.1,0.8-0.7,2.5-1.8,5l-2.5,4.9c-1.8,0.2-3.5,1-5.1,2.5c0.8-1.4,1.8-3,3-4.9
	c1.2-1.8,3-4.6,5.5-8.2c0.4-0.7,0.4-0.9,0-0.5c-0.4,0.3-1.4,1.7-3.1,3.9c-1.7,2.3-4,5.8-6.8,10.6c-0.8,1.2-2.6,4-5.7,8.8l0.4-1.1
	l4.1-7.3l4-7.4C32.7,20,34.8,17.4,37.3,15.6z M98.2,35.8l-0.5,0.5c0.3,0.2,0.6,0.5,0.9,0.8C98.5,36.6,98.3,36.2,98.2,35.8z
	 M20.4,32.3c1.8-3,4-7.2,6.6-12.6c0.8-1.6,1.9-3.4,3.4-5.4c0.5-1.1,0.2-1-0.8,0.1c-2.2,2.8-4.8,7.2-7.8,13.2l1.3-3.3
	c0.2-0.7,1-2.4,2.2-5s2.4-4.6,3.6-6.1s2-2.5,2.5-2.9c1.6-1.4,2.6-2.1,2.9-2c0.2,0.2,0.3,0.5,0.2,0.9l-3.4,8.6
	c-2.2,4.2-5.1,8.7-8.6,13.3c-1.5,1.6-2.4,2.7-2.8,3.1c-0.4,0.5-0.7,0.9-0.9,1.3l0.3-1.2C19.1,34.4,20.4,32.3,20.4,32.3z M98.1,33
	c0.1,0.4,0.2,0.9,0.4,1.3l0.3-0.3C98.6,33.7,98.4,33.4,98.1,33z M90.7,24.1l-1.5,3.4c1.3,1.1,2.4,2.3,3.6,3.5l1.3-0.6
	c0-0.5,0.2-0.9,0.3-1.3c0.3-0.8,0.6-1.7,0.7-1.8c-1.2-0.5-2.6-1.3-3.3-2.1C91.2,24.8,90.9,24.4,90.7,24.1L90.7,24.1z M91.5,22.5
	c0-0.5,0.4-0.9,1.4-0.9s1.2-0.4,0.5-0.9c-1.3-0.5-2.4-1.2-3.3-2.3c-0.6-0.8-0.6-1.3,0-1.6l1-0.3l0.5-0.6L91,13.5
	c-0.2-1.2,0.2-2.1,1-2.6c1.2-0.2,2.4,0.2,3.6,1.1c0-0.6,0.5-0.8,1.3-0.6c0.8,0.3,1.5,1.9,2.2,5.1l1.1,0.4c0.4-0.9,0.7-1.3,0.9-1.3
	c0.4,0,0.7,0.8,1.1,2.3c0.9,0.8,1.3,2.2,1.3,4c-0.6,0.8-0.9,1.7-1,2.9l-0.6-1.2c-0.3-1.4-0.5-2.8-0.4-4.3c0-0.6-0.1-0.6-0.2,0
	c-0.1,1.3-0.2,2.4-0.1,3.4c-1.2-1.6-2.6-3-4-4.3c-0.3-1-0.4-2.1-0.3-3.4c-0.1-1.1-0.3-1.3-0.3-0.8c-0.1,1.4,0,2.6,0.1,3.8
	c-1.1-1-2.3-2.6-3.7-4.6c-0.4-0.6-0.5-0.8-0.5-0.4c0.9,1.6,1.8,3,2.7,4.1c1,1.1,1.7,2,2.3,2.6c-1.2-0.4-2.2-0.6-3.1-0.7
	s-1.7-0.4-2.4-0.7c-0.7-0.1-0.7,0,0.1,0.5c0.4,0.3,1.2,0.5,2.5,0.8c1.3,0.2,2.4,0.6,3.5,1.2c0.6,0.4,1.4,1.3,2.4,2.8l0.8,1.8
	c-1.3-0.7-2.7-1.2-4.3-1.4c-1.6-0.3-2.5-0.5-2.7-0.8c-1.2-0.5-1.3-0.5-0.4,0.1c0.3,0.3,1.2,0.6,2.9,0.9s3.3,1,4.8,2l0.1,0.4
	c-0.3,0.4-0.4,0.9-0.3,1.5l0.5,1.4c-0.4-0.5-1-0.3-1.7,0.7c0.3-0.6,0.2-1.1-0.2-1.6c-0.6-1-2.2-2-4.7-3.1l-0.4,0.8
	C93.2,25.4,92,24.2,91.5,22.5z M34.8,28.1C34.8,28.1,34.8,28,34.8,28.1L34.8,28.1z M88.5,22c0.6,0.4,1.2,0.9,1.6,1.2
	c-0.2-0.4-0.4-0.9-0.4-1.2C89.3,22.1,88.9,22.1,88.5,22z M87.1,21.1c0.4,0.1,1.2,0.2,2.9,0.1c0.1-0.3,0.4-0.5,0.7-0.6
	c-0.7-0.5-1.3-1.1-1.7-1.7c-0.3-0.7-0.6-1.9-0.5-2.7c-0.7,0.2-1.4,0.3-1.9,0.1c-0.5,0-0.6-0.2-0.2-0.3c1.2,0.1,2.3-0.3,3.3-1.1
	c-0.6-0.8-1.3-1.6-2.1-2.4s-0.5-0.8,0.7-0.2c0.6,0.5,1.2,1,1.6,1.6c-0.1-1.1-0.1-1.9,0-2.7c0.2-1.1,1-1.7,2.3-1.7
	C91,8.8,89.9,9.3,89,11c-2-1.1-3.2-1.1-3.7,0c0,1.4,0.3,2.2,0.9,2.5c0.5,0.3,0.5,0.8,0,1.4L85,15.4c0.1,1.8,1.4,2.7,2.9,3.3
	l-0.5,0.8c-0.9,0.5-0.8,0.8-0.8,1.1c0,0,0,0.1,0.1,0.1C86.9,20.9,87,21,87.1,21.1z M57,6.3c0,0.9-0.4,1.8-1.5,2.9
	c-1.6,1.5-3.5,2.8-5.9,4s-5.6,2.7-9.1,4.4v-0.4c4.3-3.5,8.7-6.3,12.7-8.5c1.1-0.6,0.6-0.8-0.6-0.5c-1.4,0.7-2.9,1.5-4.5,2.5
	c-2.7,1.8-5.4,3.5-8,5.3l0.1-0.8c5.2-4.6,9.5-7.5,12.8-8.8C54.7,6,56.1,6,57,6.3z M41.5,8c2.5-2.1,5.5-3.7,9-4.8
	c1.7-0.5,3.2-0.7,4.4-0.6c0.6,0.1,0.8,0.5,0.5,1l-1.5,2c-1.3,0.2-3.1,0.9-5.5,2.3c-2.3,1.3-4.8,3.1-7.4,5.3l-1,0.6
	c-0.5-0.4-1.4-0.2-2.7,0.5c4.2-3.5,7.9-6.2,11-8c2-1,3.2-1.7,3.5-2.1c-1,0.3-2.4,0.9-4.3,1.9c-1.8,1-4.8,3-9.1,6.1l-4,3.6
	C36.6,12.6,39,10,41.5,8z M82.2,13.9l0.1-1.6L81,12.6c-1.2,0.4-2.5,0-3.7-1.1c-0.8,0.1-1.2-0.2-1-1c0.3-0.7,0.2-1-0.3-1.1l-2,0.2
	c-1.3-0.2-2.1-0.5-2.5-1.1c-0.3-0.5-0.1-1,0.5-1.7c-1.2-0.5-2-1-2.3-1.6s-0.1-1.1,0.5-1.4c0.7-0.4,1.9-0.4,3.7-0.2
	c-0.4-0.5-0.5-1-0.3-1.6c0-0.5,1.2-0.3,3.6,0.9l1.4,0.8c0.4-0.7,1-0.9,1.9-0.6c1.1,0.5,2,1.1,3,1.8c0.9,0.7,1.9,1.7,3.1,3
	c1-0.6,1.6-0.5,2.1,0.4l0.2,1.6c-1-1-2.2-1-3.7-0.2l-1-0.4c-1.3-1.6-2.1-2.8-2.4-3.6c-0.3-1-0.4-1.1-0.4-0.3c0,0.9,0.6,2.1,1.6,3.5
	c-2-0.6-3.5-1.5-4.4-2.5s-1.7-1.8-2.2-2.5c-0.5-0.8-0.7-0.8-0.6,0c0.5,1,1.3,1.9,2.3,2.8c-0.7-0.3-1.4-0.6-2.1-1
	c-1.6-0.7-2.9-1-4-1.1c-0.5,0-0.5,0.1-0.1,0.3c1.8,0.5,3.1,0.9,3.9,1.3c0.8,0.4,1.3,0.7,1.6,1.1c-1.3,0.5-2.6,0.8-4,0.8
	c-0.9,0-1.3,0-1.2,0.1s0.4,0.2,0.8,0.3c1.6,0.2,3.3,0,5-0.5c1.2,0.6,2.7,1.3,4.3,1.8c-1,0.2-2,0.7-3,1.4c-0.4,0.5-0.2,0.5,0.5,0.1
	c0.7-0.5,1.8-0.9,3.3-1l1.2,0.5c-0.1,1.2,0.2,2.5,0.9,3.8l-0.8,0.3L82.2,13.9L82.2,13.9z"/>
</svg>
